<mxfile host="Electron" agent="Mozilla/5.0 (Windows NT 10.0; Win64; x64) AppleWebKit/537.36 (KHTML, like Gecko) draw.io/26.0.4 Chrome/128.0.6613.186 Electron/32.2.5 Safari/537.36" version="26.0.4">
  <diagram name="Page-1" id="eo9_WLX4i6MRtV-79SUJ">
    <mxGraphModel dx="1424" dy="334" grid="1" gridSize="10" guides="1" tooltips="1" connect="1" arrows="1" fold="1" page="1" pageScale="1" pageWidth="850" pageHeight="1100" math="0" shadow="0">
      <root>
        <mxCell id="0" />
        <mxCell id="1" parent="0" />
        <mxCell id="xD0bL81C4ZWrOrEym1o9-27" value="Cestujúci&lt;div&gt;čakajú&lt;/div&gt;" style="ellipse;whiteSpace=wrap;html=1;" parent="1" vertex="1">
          <mxGeometry x="-50" y="560" width="100" height="70" as="geometry" />
        </mxCell>
        <mxCell id="xD0bL81C4ZWrOrEym1o9-28" style="edgeStyle=orthogonalEdgeStyle;rounded=0;orthogonalLoop=1;jettySize=auto;html=1;" parent="1" source="xD0bL81C4ZWrOrEym1o9-29" target="xD0bL81C4ZWrOrEym1o9-31" edge="1">
          <mxGeometry relative="1" as="geometry" />
        </mxCell>
        <mxCell id="xD0bL81C4ZWrOrEym1o9-29" value="Vozidlo na&lt;div&gt;zastávke&lt;/div&gt;" style="ellipse;whiteSpace=wrap;html=1;" parent="1" vertex="1">
          <mxGeometry x="60" y="660" width="100" height="70" as="geometry" />
        </mxCell>
        <mxCell id="xD0bL81C4ZWrOrEym1o9-30" style="rounded=0;orthogonalLoop=1;jettySize=auto;html=1;" parent="1" source="xD0bL81C4ZWrOrEym1o9-31" target="xD0bL81C4ZWrOrEym1o9-27" edge="1">
          <mxGeometry relative="1" as="geometry" />
        </mxCell>
        <mxCell id="xD0bL81C4ZWrOrEym1o9-31" value="&lt;div&gt;Cestujúci&lt;/div&gt;&lt;div&gt;nastupujú&lt;/div&gt;" style="ellipse;whiteSpace=wrap;html=1;" parent="1" vertex="1">
          <mxGeometry x="-160" y="660" width="100" height="70" as="geometry" />
        </mxCell>
        <mxCell id="xD0bL81C4ZWrOrEym1o9-32" value="" style="endArrow=classic;html=1;rounded=0;endFill=1;" parent="1" source="xD0bL81C4ZWrOrEym1o9-27" target="xD0bL81C4ZWrOrEym1o9-29" edge="1">
          <mxGeometry width="50" height="50" relative="1" as="geometry">
            <mxPoint x="-25" y="700" as="sourcePoint" />
            <mxPoint x="25" y="650" as="targetPoint" />
          </mxGeometry>
        </mxCell>
        <mxCell id="xD0bL81C4ZWrOrEym1o9-33" value="?&lt;span style=&quot;text-align: left; text-wrap: wrap;&quot;&gt;Vozidlo_prišlo&lt;/span&gt;" style="text;html=1;align=center;verticalAlign=middle;resizable=0;points=[];autosize=1;strokeColor=none;fillColor=none;" parent="1" vertex="1">
          <mxGeometry x="90" y="620" width="100" height="30" as="geometry" />
        </mxCell>
        <mxCell id="xD0bL81C4ZWrOrEym1o9-34" value="?&lt;span style=&quot;text-align: left; text-wrap: wrap;&quot;&gt;Začiatok_nastupovania&lt;/span&gt;" style="text;html=1;align=center;verticalAlign=middle;resizable=0;points=[];autosize=1;strokeColor=none;fillColor=none;" parent="1" vertex="1">
          <mxGeometry x="-75" y="710" width="150" height="30" as="geometry" />
        </mxCell>
        <mxCell id="xD0bL81C4ZWrOrEym1o9-35" value="&lt;div&gt;?&lt;span style=&quot;text-align: left; text-wrap: wrap; background-color: transparent; color: light-dark(rgb(0, 0, 0), rgb(255, 255, 255));&quot;&gt;Koniec_nastupovania&lt;/span&gt;&lt;/div&gt;" style="text;html=1;align=center;verticalAlign=middle;resizable=0;points=[];autosize=1;strokeColor=none;fillColor=none;" parent="1" vertex="1">
          <mxGeometry x="-190" y="620" width="140" height="30" as="geometry" />
        </mxCell>
      </root>
    </mxGraphModel>
  </diagram>
</mxfile>
